<svg width="54" height="57" xmlns="http://www.w3.org/2000/svg"><path d="M46.063 35.107l3.168 9.4-9.691.392-2.29 9.664-8.36-5.046-7.021 6.857-4.375-8.874-9.523 1.879 1.002-9.896-9.004-3.7 6.062-7.768L.408 19.91l9.194-3.17-.461-9.94 9.41 2.435 4.85-8.617 6.634 7.253 8.623-4.549 1.756 9.78 9.662.948-3.682 9.204 7.622 6.156zM18.9 34.35c0 2.915 1.256 5.122 3.394 6.321 1.102.615 2.333.972 4.05.972 5.248 0 8.002-4.05 7.97-7.905 0-2.916-1.037-5.83-4.633-6.738l4.179-7.646.34-1.204H18.9v5.4l7.087.113-3.012 6.285v.777c2.462-.097 5.701-.227 5.734 3.046-.033 1.522-.907 2.721-2.495 2.721-1.555 0-2.782-.652-2.814-2.142h-4.5z" fill="#fff"/></svg>