<svg width="49" height="32" xmlns="http://www.w3.org/2000/svg"><path d="M48.925 20.266v10.667c0 .589-.477 1.067-1.065 1.067h-3.194v-3.2a1.065 1.065 0 10-2.129-.001V32h-2.13v-5.333c0-.589-.477-1.067-1.064-1.067-.588 0-1.065.478-1.065 1.067V32h-2.13v-3.2a1.065 1.065 0 10-2.129-.001V32H31.89v-5.333c0-.589-.477-1.067-1.065-1.067-.587 0-1.064.478-1.064 1.067V32h-2.13v-3.2a1.065 1.065 0 10-2.129-.001V32h-2.13v-5.333a1.065 1.065 0 10-2.129 0V32h-2.129v-3.2a1.066 1.066 0 10-2.129-.001V32h-2.13v-5.333c0-.589-.477-1.067-1.064-1.067-.588 0-1.065.478-1.065 1.067V32h-2.13v-3.2a1.065 1.065 0 10-2.129-.001V32H6.338v-5.333c0-.589-.477-1.067-1.065-1.067-.587 0-1.064.478-1.064 1.067V32H1.015A1.066 1.066 0 01-.05 30.933V20.266c0-.588.477-1.066 1.065-1.066h3.222C4.792 8.518 13.642 0 24.437 0 35.234 0 44.084 8.518 44.64 19.2h3.221c.588 0 1.065.478 1.065 1.066zm-14.906 0c0-5.293-4.299-9.6-9.582-9.6s-9.582 4.307-9.582 9.6c0 .59.477 1.067 1.065 1.067h17.035c.588 0 1.064-.478 1.064-1.067z" fill="#fff"/></svg>