<svg width="49" height="48" xmlns="http://www.w3.org/2000/svg"><path d="M1.668 40.327a4.488 4.488 0 000 6.358 4.496 4.496 0 003.186 1.317 4.5 4.5 0 003.186-1.317l14.788-14.762-6.371-6.357zm36.96-27.36l6.433-3.325 3.375-6.507-3.143-3.138-6.518 3.37-3.331 6.424-7.84 7.828 3.18 3.178zm1.408 17.066l-.608-.062c-1.099 0-2.14.226-3.113.585l-18.49-18.458c.36-.972.586-2.011.586-3.109l-.06-.606c-.318-4.677-4.18-8.386-8.948-8.386-1.387 0-2.687.34-3.861.899l5.984 5.974c.315.316.53.688.676 1.08a2.987 2.987 0 01-.676 3.158 2.994 2.994 0 01-2.123.879c-.355 0-.705-.077-1.042-.203a2.99 2.99 0 01-1.08-.676L1.295 5.134c-.562 1.174-.9 2.47-.9 3.855 0 4.76 3.713 8.615 8.4 8.934l.607.058c1.1 0 2.14-.225 3.114-.582l18.488 18.456c-.358.971-.584 2.01-.584 3.108l.062.606c.316 4.68 4.178 8.386 8.946 8.386a8.9 8.9 0 003.861-.898l-5.984-5.975a2.976 2.976 0 01-.678-1.077 2.991 2.991 0 01.678-3.16 3.001 3.001 0 012.122-.879c.355 0 .707.08 1.042.204.393.147.768.36 1.082.674l5.984 5.974c.563-1.17.9-2.47.9-3.855 0-4.76-3.715-8.614-8.4-8.93z" fill="#fff"/></svg>