<svg width="19" height="18" xmlns="http://www.w3.org/2000/svg"><path d="M18.15 8.78c0 4.784-3.888 8.675-8.666 8.675a8.68 8.68 0 01-3.93-.943L.894 17.74a.296.296 0 01-.29-.083.294.294 0 01-.064-.294l1.423-4.274A8.673 8.673 0 01.82 8.78C.819 3.997 4.706.107 9.484.107s8.665 3.89 8.665 8.674zm-3.065 2.652c-.414-.782-1.77-1.593-1.926-1.685a1.215 1.215 0 00-.596-.17.771.771 0 00-.686.379 7.471 7.471 0 01-.505.562c-.447.304-.78.272-1.167-.117L7.865 8.06c-.384-.385-.418-.724-.12-1.164.05-.063.328-.31.565-.51a.766.766 0 00.35-.456c.07-.252.02-.546-.143-.83-.09-.154-.9-1.512-1.682-1.926a1.112 1.112 0 00-1.285.194l-.517.517c-.84.841-1.145 1.797-.904 2.84.199.859.774 1.77 1.71 2.707l2.995 2.997c1.187 1.189 2.324 1.792 3.379 1.792.782 0 1.51-.331 2.162-.984l.516-.517c.343-.343.42-.86.194-1.288z" fill="#2cb742"/></svg>