<svg width="19" height="19" xmlns="http://www.w3.org/2000/svg"><path d="M15.928 8.226a1.301 1.301 0 00-.001.19c.009.264.027.812-.57.904a1.14 1.14 0 01-.17.013h-.001c-.642 0-.678-.6-.695-.887a2.19 2.19 0 00-.02-.209c-.398-2.412-1.213-3.266-3.634-3.81a2.472 2.472 0 00-.207-.034c-.259-.035-.58-.08-.763-.33-.109-.148-.145-.338-.107-.564.039-.232.186-.622.739-.622.139 0 .277.023.41.045.062.01.12.02.174.026 2.695.326 4.87 2.677 4.847 5.242 0 .012 0 .024-.002.036zM9.464 1.299c.016-.278.14-.744.792-.744.074 0 .147.006.211.01.053.003.104.007.145.007.025 0 .04-.002.048-.003a.307.307 0 01.05-.002c4.094.139 7.64 3.872 7.59 7.989 0 .055.003.118.006.185.012.274.027.613-.19.842-.126.131-.3.198-.52.198h-.021c-.7-.014-.71-.668-.715-.983a2.332 2.332 0 00-.011-.24c-.507-4.025-2.335-5.918-6.31-6.532-.057-.009-.125-.014-.197-.02-.297-.02-.915-.066-.878-.707zm8.192 14.8c-.497 1.412-2.117 2.65-3.466 2.65h-.023a.269.269 0 01-.072-.01l-.168-.04a4.085 4.085 0 01-.728-.216c-2.868-1.242-5.344-2.893-7.358-4.91-2.058-2.06-3.69-4.555-4.85-7.418-.402-.99-.419-1.942-.05-2.753.384-.839 1.151-1.473 2.221-1.834a1.806 1.806 0 011.233.003c.93.344 3.139 3.37 3.193 4.375.048.885-.63 1.348-.994 1.596-.642.438-.76.976-.395 1.799.754 1.703 2.072 2.992 3.919 3.834.229.104.438.157.623.157.312 0 .565-.154.773-.472.471-.716 1.042-1.08 1.697-1.08.486 0 1 .196 1.572.6l.278.195c.446.313.908.636 1.342.987.082.067.17.134.254.199.64.49 1.435 1.102 1 2.338zm-4.874-9.946c.557.568.884 1.281.877 1.91.02.601-.199.934-.65.988a.701.701 0 01-.083.004c-.375 0-.667-.303-.71-.739-.093-.933-.558-1.436-1.463-1.582-.25-.04-.523-.114-.667-.354-.097-.164-.107-.363-.028-.593.169-.492.65-.504.88-.51.613-.015 1.286.306 1.844.876z" fill="#fff"/></svg>