<svg width="18" height="18" xmlns="http://www.w3.org/2000/svg"><path d="M17.996 16.612c0 .375-.137.7-.41.973a1.33 1.33 0 01-.974.411c-.39 0-.713-.137-.973-.41l-3.709-3.699a7.404 7.404 0 01-4.314 1.342c-1.031 0-2.017-.2-2.957-.6a7.61 7.61 0 01-2.433-1.623 7.605 7.605 0 01-1.622-2.433 7.48 7.48 0 01-.6-2.957c0-1.031.2-2.017.6-2.958.4-.94.94-1.751 1.622-2.432A7.616 7.616 0 014.659.603c.94-.4 1.926-.6 2.957-.6 1.03 0 2.017.2 2.958.6.94.4 1.751.941 2.432 1.623a7.607 7.607 0 011.622 2.432c.4.941.6 1.927.6 2.958a7.406 7.406 0 01-1.34 4.314l3.708 3.71c.267.266.4.59.4.972zM12.46 7.616c0-1.334-.474-2.475-1.422-3.423-.948-.947-2.089-1.422-3.422-1.422-1.334 0-2.475.475-3.422 1.422-.948.948-1.422 2.09-1.422 3.423 0 1.333.474 2.474 1.422 3.422s2.088 1.422 3.422 1.422 2.474-.474 3.422-1.422S12.46 8.95 12.46 7.616z" fill="#00acff"/></svg>