<svg width="19" height="19" xmlns="http://www.w3.org/2000/svg"><path d="M15.928 8.225a1.317 1.317 0 00-.001.191c.009.264.027.812-.57.903a1.14 1.14 0 01-.17.014h-.001c-.642 0-.678-.6-.695-.888a2.19 2.19 0 00-.02-.208c-.398-2.412-1.213-3.266-3.634-3.81a2.472 2.472 0 00-.207-.034c-.259-.035-.58-.08-.763-.33-.109-.148-.145-.338-.107-.564.039-.232.186-.622.739-.622.139 0 .277.023.41.045.062.01.12.02.174.026 2.695.325 4.87 2.677 4.848 5.242a.198.198 0 01-.003.035zM9.464 1.298c.016-.277.14-.743.792-.743.074 0 .147.005.211.01.053.003.104.007.145.007.025 0 .04-.002.048-.003a.307.307 0 01.05-.003c4.094.14 7.641 3.873 7.59 7.99 0 .055.003.118.006.185.012.273.027.613-.19.842-.125.131-.3.197-.52.197h-.021c-.7-.013-.71-.668-.715-.982a2.332 2.332 0 00-.011-.24c-.507-4.026-2.335-5.918-6.31-6.533-.057-.008-.125-.013-.197-.019-.297-.021-.915-.066-.878-.708zM17.656 16.1c-.497 1.412-2.117 2.65-3.466 2.65h-.023a.269.269 0 01-.071-.01l-.169-.04a4.014 4.014 0 01-.728-.217c-2.868-1.24-5.344-2.892-7.358-4.908-2.058-2.06-3.69-4.556-4.85-7.42-.402-.99-.419-1.941-.05-2.752.384-.839 1.151-1.473 2.221-1.834a1.806 1.806 0 011.233.003c.93.343 3.139 3.37 3.193 4.375.048.885-.63 1.348-.994 1.596-.642.438-.76.976-.395 1.799.754 1.703 2.072 2.992 3.919 3.833.229.105.438.158.623.158.312 0 .565-.155.774-.472.47-.717 1.041-1.08 1.696-1.08.486 0 1 .196 1.572.6l.278.195c.446.313.908.636 1.342.987.082.066.17.134.254.198.64.491 1.435 1.102 1 2.339zm-4.873-9.946c.556.568.883 1.28.876 1.909.02.602-.199.934-.65.988a.701.701 0 01-.083.005c-.375 0-.667-.303-.71-.739-.093-.933-.558-1.436-1.462-1.582-.25-.04-.524-.114-.668-.354-.097-.164-.107-.364-.028-.593.169-.492.65-.504.88-.51.613-.015 1.286.306 1.845.876z" fill="#7f40bd"/></svg>