<svg width="75" height="76" xmlns="http://www.w3.org/2000/svg"><path d="M58.11 32c0 14.557-11.783 26.4-26.267 26.4S5.576 46.557 5.576 32c0-14.558 11.783-26.4 26.267-26.4S58.11 17.442 58.11 32zM31.843 56c13.167 0 23.879-10.767 23.879-24 0-13.234-10.712-24-23.88-24C18.677 8 7.965 18.765 7.965 32c0 12.553 9.642 22.867 21.87 23.898-1.581-.373 1.74.102 2.009.102zm42.982 12.909c0 3.468-2.808 6.29-6.259 6.29a6.201 6.201 0 01-4.426-1.841L52.737 61.896l-2.14 2.152-1.69-1.697L51.05 60.2l-2.144-2.154A30.747 30.747 0 0131.843 63.2C14.725 63.2.8 49.204.8 32 .8 14.795 14.725.8 31.843.8 48.96.8 62.885 14.794 62.885 32a31.128 31.128 0 01-5.128 17.15l2.143 2.153 2.141-2.152 1.688 1.697L61.59 53l11.403 11.462a6.264 6.264 0 011.833 4.448zm-14.327-36.91c0-15.88-12.856-28.8-28.655-28.8-15.8 0-28.655 12.92-28.655 28.8s12.855 28.8 28.655 28.8S60.498 47.88 60.498 32zm-7.761 26.504L58.212 53l-1.867-1.876a31.444 31.444 0 01-5.476 5.503zm19.7 10.406c0-1.04-.402-2.017-1.133-2.751L59.9 54.696 54.425 60.2l11.404 11.462a3.836 3.836 0 002.737 1.138c2.135 0 3.871-1.744 3.871-3.89z" fill="#00acff"/></svg>