<svg width="75" height="76" xmlns="http://www.w3.org/2000/svg"><path d="M70.05 29.6c0 3.97-3.214 7.2-7.165 7.2a6.925 6.925 0 01-2.984-.679 6.926 6.926 0 01-2.985.678c-3.951 0-7.164-3.229-7.164-7.2 0-3.97 3.213-7.2 7.164-7.2a6.92 6.92 0 012.985.679 6.925 6.925 0 012.984-.678c3.951 0 7.164 3.229 7.164 7.2zm-2.389 0c0-2.648-2.142-4.8-4.776-4.8-.823 0-1.625.225-2.384.67l-.6.35-.601-.35c-.76-.445-1.562-.67-2.384-.67-2.634 0-4.776 2.152-4.776 4.8 0 2.647 2.142 4.8 4.776 4.8.822 0 1.625-.225 2.384-.67l.6-.352.601.352c.76.444 1.56.67 2.384.67 2.634 0 4.776-2.153 4.776-4.8zm-26.267 12v9.6h2.388V44h31.043v9.6h-4.776v7.2h-2.388v4.8h7.164v9.6H43.782V68h-2.388v7.2H.8V5.6h14.448c.555-2.735 2.967-4.8 5.85-4.8h47.757c3.292 0 5.97 2.691 5.97 6v28.8c0 3.308-2.678 6-5.97 6zM17.515 8h54.922V6.8c0-1.985-1.607-3.6-3.582-3.6H21.097c-1.975 0-3.582 1.615-3.582 3.6zm0 8.4h54.922v-6H17.515zm-2.388 19.2v-6.936c-4.61 2.35-7.432 7.161-7.143 12.477.364 6.712 5.886 12.179 12.572 12.45a13.06 13.06 0 009.639-3.67 13.097 13.097 0 003.976-8.321H21.097c-3.292 0-5.97-2.692-5.97-6zM39.007 68h-2.389v-9.6h2.388V41.6H36.56a15.473 15.473 0 01-4.71 10.05 15.35 15.35 0 01-11.39 4.336c-7.902-.318-14.43-6.782-14.86-14.715-.362-6.69 3.442-12.704 9.528-15.246V8H3.187v64.8h35.82zm26.266-2.4v-4.8h-2.388v2.4h-2.388v-2.4H58.11v2.4h-2.388v-2.4h-2.388v2.4h-2.388v-2.4h-2.388v2.4H46.17v-2.4h-2.388v2.4h-2.388v-2.4h-2.388v4.8zm2.388 4.8V68h-2.388v2.4h-2.388V68h-2.388v2.4H58.11V68h-2.388v2.4h-2.388V68h-2.388v2.4h-2.388V68H46.17v4.8h26.267V68h-2.388v2.4zm-21.49-19.2h26.266v-4.8h-2.388v2.4h-2.388v-2.4h-2.388v2.4h-2.388v-2.4h-2.387v2.4H58.11v-2.4h-2.388v2.4h-2.388v-2.4h-2.388v2.4h-2.388v-2.4H46.17zm-4.777 2.4v4.8h26.267v-4.8h-2.388V56h-2.388v-2.4h-2.388V56H58.11v-2.4h-2.388V56h-2.388v-2.4h-2.388V56h-2.388v-2.4H46.17V56h-2.388v-2.4zm27.461-14.4c1.975 0 3.582-1.615 3.582-3.6V18.8H17.515v16.8c0 1.985 1.607 3.6 3.582 3.6z" fill="#00acff"/></svg>