<svg width="75" height="75" xmlns="http://www.w3.org/2000/svg"><path d="M74.591 31.148a4.508 4.508 0 01-1.339 3.22L60.27 47.308v23.299a3.58 3.58 0 01-3.581 3.569H4.17a3.58 3.58 0 01-3.58-3.57V3.995A3.579 3.579 0 014.17.424h52.517a3.579 3.579 0 013.58 3.569V6.28a9.583 9.583 0 001.194-4.666h2.387c0 5.78 3.748 9.516 9.549 9.516v2.38c-5.271 0-9.549 6.477-9.549 10.704h-2.387c0-1.633-.432-3.325-1.194-4.873V34.43l6.522-6.501a4.549 4.549 0 013.23-1.333c2.522 0 4.571 2.043 4.571 4.553zM56.943 12.442c2.54 1.372 4.637 3.72 5.83 6.535 1.19-2.518 3.132-4.923 5.579-6.392-2.626-1.057-4.631-2.974-5.784-5.524a11.687 11.687 0 01-5.625 5.38zm.938 58.165v-20.92L45.434 62.096l-11.31 4.83 4.848-11.272.162-.161.35-.35h-6.667v-8.325h8.355v6.644l16.71-16.653V16.062c-1.61-1.54-3.665-2.552-5.968-2.552v-2.38c2.278 0 4.343-.762 5.967-2.043V3.994c0-.657-.535-1.19-1.193-1.19H4.17c-.657 0-1.193.533-1.193 1.19v66.613c0 .656.536 1.189 1.193 1.189h52.517c.657 0 1.193-.533 1.193-1.19zm-17.5-12.192l-1.711 3.978 3.991-1.704zm-5.178-9.22v3.569h3.581v-3.569zM65.742 38.49l-3.086-3.076-20.99 20.918 3.086 3.077zm6.462-7.342a2.18 2.18 0 00-2.183-2.174 2.17 2.17 0 00-1.544.637l-4.134 4.12 3.087 3.077 4.134-4.122c.407-.406.64-.965.64-1.538zM8.945 15.888c0-3.935 3.212-7.136 7.162-7.136 3.95 0 7.161 3.2 7.161 7.137 0 3.936-3.212 7.137-7.161 7.137-3.95 0-7.162-3.2-7.162-7.137zm2.387 0c0 2.625 2.142 4.759 4.775 4.759 2.633 0 4.774-2.134 4.774-4.758 0-2.625-2.141-4.758-4.774-4.758s-4.775 2.133-4.775 4.758zm-1.193 9.517h9.548v2.38H10.14zm9.548 9.516v8.326h-8.355v-8.326zM17.3 37.3h-3.58v3.568h3.58zm-5.968 9.516h8.355v8.326h-8.355zm2.388 5.947h3.58v-3.569h-3.58zm27.45-17.842v8.327h-8.355V34.92zm-2.387 2.38h-3.58v3.568h3.58zm-7.16-24.98h16.709v2.378h-16.71zm0 7.136h21.483v2.38H31.623zm0 7.138h21.483v2.379H31.623zm-9.55 9.515h5.968v2.38h-5.968zm0 4.759h5.968v2.379h-5.968zM43.56 36.11h5.968v2.38H43.56zm0 4.759h5.968v2.379H43.56zm-21.485 9.516h5.968v2.379h-5.968zM11.332 59.9h21.484v2.38H11.332zm0 4.758h21.484v2.38H11.332zm10.742-39.254h2.387v2.38h-2.387zm31.033 41.633h2.387v2.38h-2.387zm-4.774 0h2.387v2.38h-2.387zm-42.968 0h2.387v2.38H5.365z" fill="#00acff"/></svg>