<svg width="75" height="75" xmlns="http://www.w3.org/2000/svg"><path d="M74.577 20.412V74.4H19.655v-9.598H6.522c-3.292 0-5.97-3.228-5.97-7.198V18.012C.552 17.856.562 1.59.583 0l1.194.016h53.697v9.598h8.357c5.926 0 10.746 4.845 10.746 10.798zm-64.473-4.8c0-3.307 2.678-5.998 5.97-5.998h37.012V2.416H2.96c-.013 4.938-.02 15.47-.02 15.596v39.592c0 2.646 1.607 4.798 3.582 4.798 1.974 0 3.582-2.152 3.582-4.798zm9.551 0c0-1.984-1.607-3.598-3.582-3.598-1.975 0-3.582 1.614-3.582 3.599v41.99c0 1.845-.583 3.524-1.533 4.8h8.697zm52.534 4.8c0-4.631-3.75-8.398-8.358-8.398H20.818a5.955 5.955 0 011.225 3.599V72h50.146zm-23.88 8.398h19.104v19.196H48.31zm2.389 16.796h14.327V31.21H50.698zM26.818 28.81h19.104v19.196H26.819zm2.389 16.796h14.327V31.21H29.207zm19.103 4.799h19.103v19.196H48.31zm2.388 16.796h14.327V52.805H50.698zm2.388-29.993h9.551v2.4h-9.551zm0 21.595h9.551v2.4h-9.551zM69.8 20.412c0 3.308-2.678 5.998-5.97 5.998H36.013l-11.848-5.998 11.848-5.999h27.818c3.292 0 5.97 2.691 5.97 5.999zm-34.625-2.888l-5.703 2.888 5.703 2.889zm21.491 4.088H37.564v2.399h19.103zm0-4.8H37.564v2.4h19.103zm4.776 0h-2.388v7.199h2.388zm5.97 3.6c0-1.984-1.607-3.6-3.582-3.6v7.199c1.975 0 3.582-1.615 3.582-3.6zM37.564 37.208h3.582v2.4h-3.582v3.599h-2.388v-3.6h-3.581v-2.399h3.581v-3.6h2.388zM26.82 50.405h19.103v19.196H26.819zm2.388 16.796h14.327V52.805H29.207zm11.384-9.743l-2.532 2.545 2.532 2.544-1.688 1.697L36.37 61.7l-2.532 2.545-1.688-1.697 2.532-2.544-2.532-2.545 1.688-1.696 2.532 2.545 2.533-2.545zm16.076 4.944h2.388v2.4h-2.388zm0-7.198h2.388v2.4h-2.388z" fill="#00acff"/></svg>