<svg width="75" height="74" xmlns="http://www.w3.org/2000/svg"><path d="M74.442 72.685v1.19h-2.387v-1.19c0-6.157-4.72-11.235-10.742-11.834v13.024h-2.387V60.79h-3.58v13.085h-2.388V60.79h-2.387c-.487 0-.953-.075-1.406-.184-1.038 5.512-5.895 9.7-11.723 9.7-5.828 0-10.686-4.188-11.723-9.7-.454.109-.92.184-1.406.184h-2.387v13.085h-2.388V60.79h-3.58v13.085H13.57V60.85c-6.023.598-10.742 5.677-10.742 11.834v1.19H.442v-1.19c0-5.747 3.432-10.699 8.354-12.959v-2.991c-2.346-1.42-3.58-3.702-3.58-6.651 0-2.89 1.958-6.26 5.702-7.108l1.459-.33v6.248h2.387v-6.246l1.456.328c3.746.842 5.706 4.213 5.706 7.108 0 2.949-1.235 5.233-3.581 6.65v1.677h5.968a3.58 3.58 0 003.58-3.569v-4.954c-5.698-3.297-9.548-9.43-9.548-16.457v-.169c-2.053-.531-3.58-2.378-3.58-4.59 0-2.137.807-3.487 1.26-4.077a3.725 3.725 0 01-.067-.68v-2.38c0-11.806 9.638-21.41 21.484-21.41 11.846 0 21.484 9.605 21.484 21.41v2.38c0 .235-.027.46-.067.68.452.59 1.26 1.94 1.26 4.078 0 2.211-1.528 4.057-3.58 4.589v.17c0 7.025-3.851 13.159-9.549 16.456v4.954a3.58 3.58 0 003.58 3.569h3.581v-2.38c0-.152.015-3.803 1.255-7.512l3.927-9.14h6.347l3.891 9.047c1.276 3.802 1.29 7.453 1.29 7.606v7.137h-.096c2.278 2.529 3.677 5.859 3.677 9.516zm-54.904-22.6c0-1.532-.815-3.262-2.387-4.208v5.397H9.99v-5.395c-1.572.95-2.387 2.677-2.387 4.205 0 2.314.955 3.91 2.918 4.882l.662.328v3.587a14.293 14.293 0 013.581-.47h1.194v-3.117l.662-.328c1.963-.972 2.918-2.568 2.918-4.882zm37-19.363a2.372 2.372 0 001.194-2.049 5 5 0 00-.285-1.71 7.448 7.448 0 01-.908.69zm-38.16-9.813c4.247-2.255 13.163-2.942 19.064-2.942 5.9 0 14.816.687 19.064 2.943-.322-9.805-8.106-17.739-17.87-18.346v8.266h-2.388V2.564c-9.764.605-17.549 8.541-17.87 18.345zm-.033 6.743a7.222 7.222 0 01-.908-.69 4.98 4.98 0 00-.286 1.711c0 .877.484 1.636 1.194 2.048zm19.097 1.02c11.953 0 19.097-2.419 19.096-4.757-.225-1.208-7.17-3.568-19.096-3.568-11.92 0-18.862 2.358-19.096 3.572.006 2.337 7.148 4.754 19.096 4.754zm0 21.412c9.214 0 16.71-7.47 16.71-16.653v-4.598c-5.263 1.999-13.418 2.219-16.71 2.219-3.292 0-11.448-.22-16.71-2.219v4.598c0 9.183 7.495 16.653 16.71 16.653zm9.479 9.429c-1.4-1.089-2.318-2.767-2.318-4.67v-3.78a19.026 19.026 0 01-7.161 1.4c-2.533 0-4.948-.504-7.161-1.4v3.78c0 1.903-.918 3.581-2.318 4.67.55 4.73 4.589 8.414 9.479 8.414 4.89 0 8.929-3.685 9.479-8.414zm12.005-3.48c0-1.55 1.001-2.858 2.387-3.35V41.757h-.407l-3.27 7.606c-1.084 3.254-1.097 6.635-1.097 6.668v2.379h3.318a3.538 3.538 0 01-.931-2.379zm4.774 0a1.193 1.193 0 00-2.387 0 1.193 1.193 0 002.387 0zm4.774 5.082v-5.082c0-.034-.018-3.432-1.132-6.762l-3.235-7.513H63.7v10.924c1.386.493 2.387 1.801 2.387 3.35 0 1.28-.685 2.396-1.703 3.025a14.312 14.312 0 014.09 2.058zM38.635 44.137h-2.387V32.24h13.13v2.38H38.634zm-16.71-28.549h2.388v2.38h-2.387zm4.775-1.19h2.387v2.38H26.7z" fill="#00acff"/></svg>