<?xml version="1.0" encoding="UTF-8"?>
<svg id="SVGDoc" width="54" height="57" xmlns="http://www.w3.org/2000/svg" version="1.1" xmlns:xlink="http://www.w3.org/1999/xlink" xmlns:avocode="https://avocode.com/" viewBox="0 0 54 57"><defs></defs><desc>Generated with Avocode.</desc><g><g><title>3</title><path d="M46.06316,35.10722l3.16807,9.40018l-9.69166,0.3916l-2.29031,9.66365l-8.35899,-5.04525l-7.02164,6.85614l-4.37485,-8.87363l-9.52251,1.87875l1.00204,-9.89527l-9.00387,-3.70025l6.06205,-7.76822l-5.62305,-8.10485l9.19373,-3.16991l-0.46154,-9.94152l9.41071,2.43487l4.85012,-8.61624l6.6338,7.25304l8.62289,-4.54903l1.75587,9.77889l9.66213,0.94923l-3.68168,9.20344l7.62177,6.15597zM18.89993,34.34981c0,2.91517 1.25633,5.12258 3.39443,6.32125c1.10149,0.61526 2.33253,0.9716 4.04949,0.9716c5.24815,0 8.00182,-4.04939 7.96932,-7.90431c0,-2.91593 -1.03661,-5.83109 -4.63257,-6.73862l4.17904,-7.6454l0.34035,-1.20473h-15.30006v5.40007l7.08755,0.11335l-3.01289,6.28486v0.7775c2.4622,-0.09742 5.70179,-0.22707 5.73418,3.04519c-0.03239,1.52279 -0.90717,2.72146 -2.49458,2.72146c-1.55491,0 -2.78183,-0.65241 -2.81422,-2.14221c-1.65218,0 -2.81548,0 -4.50005,0z" fill="#ffffff" fill-opacity="1"></path></g></g></svg>