<?xml version="1.0" encoding="UTF-8"?>
<svg id="SVGDoc" width="49" height="48" xmlns="http://www.w3.org/2000/svg" version="1.1" xmlns:xlink="http://www.w3.org/1999/xlink" xmlns:avocode="https://avocode.com/" viewBox="0 0 49 48"><defs></defs><desc>Generated with Avocode.</desc><g><g><title>Forma 1</title><path d="M1.66824,40.32734c-1.75953,1.7563 -1.75953,4.60134 0,6.35764c0.87936,0.87796 2.03327,1.31732 3.18569,1.31732c1.15391,0 2.30621,-0.43936 3.18569,-1.31732l14.7884,-14.76159l-6.37138,-6.35764zM38.62808,12.96684l6.43318,-3.32458l3.37486,-6.50738l-3.14301,-3.13807l-6.51821,3.36931l-3.33103,6.42512l-7.84058,7.82736l3.18123,3.17863zM40.03571,30.03251l-0.60722,-0.06141c-1.09943,0 -2.14016,0.22556 -3.11394,0.58531l-18.48873,-18.45881c0.35946,-0.97122 0.58491,-2.01067 0.58491,-3.1085l-0.06008,-0.60578c-0.31792,-4.67754 -4.17984,-8.38651 -8.94756,-8.38651c-1.38691,0 -2.6873,0.34004 -3.86158,0.89881l5.98469,5.97477c0.31528,0.31578 0.53055,0.68728 0.67589,1.07964c0.39276,1.06258 0.18013,2.30105 -0.67589,3.15816c-0.58491,0.58531 -1.35475,0.87834 -2.12311,0.87834c-0.35465,0 -0.70496,-0.0762 -1.04221,-0.20205c-0.39299,-0.14898 -0.76527,-0.35975 -1.08055,-0.67629l-5.98446,-5.97401c-0.56168,1.17403 -0.90042,2.4705 -0.90042,3.85492c0,4.7598 3.71384,8.61472 8.40088,8.93391l0.60677,0.05838c1.09978,0 2.1405,-0.22556 3.11428,-0.58228l18.48724,18.4554c-0.35786,0.97198 -0.58365,2.01105 -0.58365,3.1085l0.0618,0.60616c0.31643,4.68057 4.17835,8.38613 8.94573,8.38613c1.38725,0 2.68913,-0.33625 3.86192,-0.89843l-5.98469,-5.97439c-0.3138,-0.31312 -0.53055,-0.68501 -0.67738,-1.07736c-0.39276,-1.06523 -0.17864,-2.30332 0.67738,-3.16082c0.58376,-0.58303 1.35475,-0.87834 2.12276,-0.87834c0.355,0 0.7069,0.07923 1.04107,0.20433c0.39299,0.14709 0.76836,0.36051 1.08204,0.67401l5.98446,5.97363c0.56293,-1.17062 0.90008,-2.47012 0.90008,-3.85492c0,-4.75942 -3.71498,-8.61434 -8.40042,-8.9305z" fill="#ffffff" fill-opacity="1"></path></g></g></svg>