<?xml version="1.0" encoding="UTF-8"?>
<svg id="SVGDoc" width="49" height="32" xmlns="http://www.w3.org/2000/svg" version="1.1" xmlns:xlink="http://www.w3.org/1999/xlink" xmlns:avocode="https://avocode.com/" viewBox="0 0 49 32"><defs></defs><desc>Generated with Avocode.</desc><g><g><title>Shape 1</title><path d="M48.92498,20.26627v10.66633c0,0.5891 -0.4771,1.06713 -1.06476,1.06713h-3.19405v-3.20024c0,-0.58872 -0.47699,-1.06675 -1.06464,-1.06675c-0.58777,0 -1.06476,0.47803 -1.06476,1.06675v3.20024h-2.12929v-5.33335c0,-0.5891 -0.47699,-1.06713 -1.06464,-1.06713c-0.58777,0 -1.06476,0.47803 -1.06476,1.06713v5.33335h-2.12929v-3.20024c0,-0.58872 -0.47699,-1.06675 -1.06476,-1.06675c-0.58765,0 -1.06464,0.47803 -1.06464,1.06675v3.20024h-2.12929v-5.33335c0,-0.5891 -0.47688,-1.06713 -1.06464,-1.06713c-0.58765,0 -1.06464,0.47803 -1.06464,1.06713v5.33335h-2.1294v-3.20024c0,-0.58872 -0.47699,-1.06675 -1.06464,-1.06675c-0.58765,0 -1.06476,0.47803 -1.06476,1.06675v3.20024h-2.12929v-5.33335c0,-0.5891 -0.47699,-1.06713 -1.06464,-1.06713c-0.58777,0 -1.06476,0.47803 -1.06476,1.06713v5.33335h-2.12929v-3.20024c0,-0.58872 -0.47688,-1.06675 -1.06464,-1.06675c-0.58765,0 -1.06464,0.47803 -1.06464,1.06675v3.20024h-2.12929v-5.33335c0,-0.5891 -0.47699,-1.06713 -1.06476,-1.06713c-0.58765,0 -1.06464,0.47803 -1.06464,1.06713v5.33335h-2.12929v-3.20024c0,-0.58872 -0.4771,-1.06675 -1.06476,-1.06675c-0.58765,0 -1.06464,0.47803 -1.06464,1.06675v3.20024h-2.1294v-5.33335c0,-0.5891 -0.47688,-1.06713 -1.06453,-1.06713c-0.58777,0 -1.06476,0.47803 -1.06476,1.06713v5.33335h-3.19393c-0.58777,0 -1.06476,-0.47803 -1.06476,-1.06713v-10.66633c0,-0.58872 0.47699,-1.06675 1.06476,-1.06675h3.22174c0.55573,-10.68149 9.40521,-19.19955 20.201,-19.19955c10.79567,0 19.64527,8.51805 20.201,19.19955h3.22163c0.58777,0 1.06476,0.47803 1.06487,1.06675zM34.01939,20.26627c0,-5.29279 -4.29909,-9.59996 -9.58202,-9.59996c-5.28294,0 -9.58202,4.30717 -9.58202,9.59996c0,0.5891 0.47699,1.06675 1.06464,1.06675h17.03476c0.58777,0 1.06464,-0.47765 1.06464,-1.06675z" fill="#ffffff" fill-opacity="1"></path></g></g></svg>