<?xml version="1.0" encoding="UTF-8"?>
<svg id="SVGDoc" width="19" height="18" xmlns="http://www.w3.org/2000/svg" version="1.1" xmlns:xlink="http://www.w3.org/1999/xlink" xmlns:avocode="https://avocode.com/" viewBox="0 0 19 18"><defs></defs><desc>Generated with Avocode.</desc><g><g><title>WhatsApp</title><path d="M18.14949,8.78077c0,4.78368 -3.8871,8.67461 -8.66547,8.67461c-1.36288,0 -2.71912,-0.32563 -3.9299,-0.94316l-4.66084,1.22748c-0.02472,0.00644 -0.04967,0.00986 -0.07462,0.00986c-0.07988,0 -0.15804,-0.0326 -0.21446,-0.09288c-0.0737,-0.07885 -0.09842,-0.19144 -0.06432,-0.29417l1.42319,-4.27381c-0.74902,-1.30785 -1.14441,-2.79462 -1.14441,-4.30793c0,-4.7833 3.8871,-8.67424 8.66535,-8.67424c4.77837,0 8.66547,3.89093 8.66547,8.67424zM15.08488,11.4321c-0.41359,-0.78243 -1.76983,-1.5933 -1.92604,-1.68541c-0.19592,-0.11183 -0.40192,-0.17059 -0.59544,-0.17059c-0.29549,0 -0.53844,0.1342 -0.68676,0.37984c-0.19855,0.23769 -0.44563,0.51594 -0.50468,0.56218c-0.44735,0.30365 -0.77957,0.27143 -1.1673,-0.11714l-2.33883,-2.34123c-0.38452,-0.38515 -0.41862,-0.7233 -0.12016,-1.16417c0.0491,-0.06293 0.3273,-0.31047 0.56465,-0.50949c0.17498,-0.10652 0.29549,-0.26346 0.34893,-0.45642c0.06992,-0.25171 0.02026,-0.54588 -0.14191,-0.8302c-0.08984,-0.15353 -0.89996,-1.51103 -1.68194,-1.92538c-0.41622,-0.22025 -0.95352,-0.13875 -1.28574,0.19409l-0.5167,0.51707c-0.84068,0.84119 -1.14464,1.79687 -0.90385,2.83973c0.19855,0.85901 0.77408,1.76957 1.71055,2.70705l2.99435,2.99705c1.18732,1.18881 2.32441,1.79194 3.37898,1.79194c0.7822,0 1.50982,-0.33132 2.1619,-0.98411l0.51636,-0.51707c0.34229,-0.34269 0.41977,-0.85977 0.19363,-1.28775z" fill="#2cb742" fill-opacity="1"></path></g></g></svg>