<?xml version="1.0" encoding="UTF-8"?>
<svg id="SVGDoc" width="19" height="19" xmlns="http://www.w3.org/2000/svg" version="1.1" xmlns:xlink="http://www.w3.org/1999/xlink" xmlns:avocode="https://avocode.com/" viewBox="0 0 19 19"><defs></defs><desc>Generated with Avocode.</desc><g><g><title>Viber</title><path d="M15.92794,8.22538c-0.00618,0.04663 -0.00378,0.11676 -0.00126,0.19106c0.00904,0.26346 0.02769,0.81162 -0.56992,0.90298c-0.05974,0.0091 -0.11719,0.01365 -0.17063,0.01365h-0.00011c-0.64178,0 -0.67806,-0.59971 -0.69534,-0.88782c-0.00469,-0.07695 -0.00916,-0.14974 -0.01888,-0.2085c-0.39837,-2.41174 -1.21365,-3.2662 -3.63464,-3.80981c-0.05985,-0.01365 -0.13138,-0.0235 -0.20714,-0.03374c-0.25852,-0.03563 -0.58033,-0.07999 -0.76321,-0.3298c-0.10872,-0.1486 -0.14477,-0.33852 -0.107,-0.56446c0.03891,-0.23238 0.18654,-0.62208 0.73883,-0.62208c0.13916,0 0.27718,0.02275 0.41061,0.04473c0.0618,0.01061 0.12016,0.02009 0.17372,0.02654c2.69474,0.32526 4.86935,2.67672 4.8476,5.24199c0,0.01175 -0.00092,0.0235 -0.00263,0.03525zM9.46397,1.29835c0.01591,-0.27749 0.13985,-0.74339 0.79182,-0.74339c0.07404,0 0.14706,0.00531 0.21149,0.00948c0.05322,0.00379 0.10345,0.0072 0.14431,0.0072c0.02552,0 0.0404,-0.00152 0.04841,-0.00265c0.01637,-0.00227 0.03262,-0.00303 0.04955,-0.00265c4.09424,0.13912 7.64145,3.87236 7.59087,7.98923c-0.00069,0.05535 0.00217,0.11827 0.00515,0.18537c0.01225,0.27332 0.02747,0.61298 -0.19032,0.84195c-0.12474,0.13116 -0.29915,0.1975 -0.51853,0.1975l-0.02174,-0.00038c-0.69935,-0.01327 -0.70976,-0.66757 -0.7148,-0.98221c-0.00137,-0.08833 -0.00275,-0.17173 -0.01144,-0.24034c-0.50663,-4.02513 -2.33505,-5.9179 -6.31062,-6.53202c-0.05653,-0.00872 -0.12451,-0.01365 -0.19615,-0.01895c-0.29686,-0.02161 -0.9145,-0.06672 -0.87799,-0.70813zM17.65634,16.09899c-0.49747,1.41209 -2.11739,2.65057 -3.46653,2.65057c-0.00011,0 -0.00011,0 -0.00011,0l-0.02266,-0.00038c-0.02415,0 -0.04818,-0.00341 -0.07153,-0.00986c-0.04246,-0.01175 -0.10071,-0.02464 -0.16823,-0.0398c-0.1981,-0.04473 -0.46921,-0.10576 -0.72784,-0.21722c-2.86846,-1.24113 -5.34428,-2.8928 -7.35855,-4.90878c-2.05799,-2.05995 -3.68992,-4.55585 -4.85058,-7.4187c-0.40157,-0.99017 -0.41828,-1.94206 -0.04841,-2.75292c0.3828,-0.83892 1.15047,-1.47313 2.22015,-1.83439c0.42469,-0.14367 0.83862,-0.14216 1.23253,0.00303c0.93052,0.34383 3.13911,3.36969 3.19347,4.37503c0.04807,0.88554 -0.63,1.34803 -0.99426,1.59633c-0.64156,0.43784 -0.75966,0.97577 -0.39516,1.79876c0.75405,1.70285 2.07264,2.9925 3.91914,3.83369c0.22888,0.10463 0.43854,0.15732 0.62302,0.15732c0.31197,0 0.56511,-0.15429 0.77374,-0.47196c0.47092,-0.71647 1.04164,-1.07964 1.69613,-1.07964c0.48592,0 1.00021,0.19599 1.5723,0.59971c0.09235,0.0652 0.18505,0.13003 0.27775,0.19485c0.44666,0.31312 0.90843,0.63648 1.34251,0.98752c0.08183,0.06634 0.16926,0.13344 0.25372,0.19826c0.6395,0.49092 1.43532,1.102 0.99941,2.33858zM12.78253,6.15254c0.55653,0.56825 0.88371,1.28131 0.8765,1.90945c0.0198,0.60199 -0.19855,0.93445 -0.64911,0.98828c-0.02815,0.00341 -0.05642,0.00493 -0.08411,0.00493h-0.00011c-0.37457,0 -0.66628,-0.30365 -0.70942,-0.73922c-0.09293,-0.93331 -0.55779,-1.43598 -1.46278,-1.58192c-0.24948,-0.04056 -0.52391,-0.1141 -0.66708,-0.35444c-0.0975,-0.16376 -0.107,-0.36316 -0.02804,-0.59289c0.16857,-0.49205 0.64934,-0.50418 0.88028,-0.50987c0.61226,-0.01478 1.28551,0.30592 1.84387,0.87569z" fill="#7f40bd" fill-opacity="1"></path></g></g></svg>