<?xml version="1.0" encoding="UTF-8"?>
<svg id="SVGDoc" width="18" height="18" xmlns="http://www.w3.org/2000/svg" version="1.1" xmlns:xlink="http://www.w3.org/1999/xlink" xmlns:avocode="https://avocode.com/" viewBox="0 0 18 18"><defs></defs><desc>Generated with Avocode.</desc><g><g><title>Forma 1</title><path d="M17.99638,16.61221c0,0.37454 -0.13699,0.69941 -0.41096,0.97311c-0.27363,0.2737 -0.5983,0.41093 -0.97309,0.41093c-0.38956,0 -0.71365,-0.13723 -0.97321,-0.41093l-3.70869,-3.69798c-1.29021,0.89388 -2.72839,1.3412 -4.31454,1.3412c-1.03088,0 -2.01656,-0.20016 -2.95738,-0.60047c-0.9407,-0.39994 -1.75175,-0.94089 -2.43301,-1.62211c-0.68127,-0.68122 -1.222,-1.4917 -1.62197,-2.43259c-0.40009,-0.94089 -0.60013,-1.92651 -0.60013,-2.95763c0,-1.03073 0.20004,-2.01636 0.60013,-2.95725c0.39997,-0.94051 0.9407,-1.75175 1.62197,-2.43297c0.68127,-0.68122 1.4922,-1.22179 2.43301,-1.62211c0.9407,-0.39994 1.9265,-0.60009 2.95738,-0.60009c1.03077,0 2.01668,0.20016 2.95773,0.60009c0.9407,0.40031 1.75152,0.94089 2.43267,1.62211c0.68127,0.68122 1.222,1.49208 1.62197,2.43297c0.40009,0.94089 0.60036,1.92651 0.60036,2.95725c0,1.58609 -0.44724,3.02434 -1.34113,4.31475l3.7088,3.70859c0.26699,0.26688 0.4002,0.59099 0.40009,0.97311zM12.46041,7.61575c0,-1.33362 -0.47413,-2.47429 -1.42204,-3.42238c-0.94826,-0.94771 -2.08889,-1.42195 -3.42247,-1.42195c-1.33358,0 -2.47444,0.47424 -3.42224,1.42195c-0.94791,0.94809 -1.42204,2.08876 -1.42204,3.42238c0,1.33362 0.47401,2.47429 1.42204,3.42238c0.94791,0.94771 2.08866,1.42195 3.42224,1.42195c1.33369,0 2.47433,-0.47386 3.42247,-1.42195c0.9478,-0.94809 1.42204,-2.08876 1.42204,-3.42238z" fill="#00acff" fill-opacity="1"></path></g></g></svg>