<?xml version="1.0" encoding="UTF-8"?>
<svg id="SVGDoc" width="40" height="40" xmlns="http://www.w3.org/2000/svg" version="1.1" xmlns:xlink="http://www.w3.org/1999/xlink" xmlns:avocode="https://avocode.com/" viewBox="0 0 40 40"><defs></defs><desc>Generated with Avocode.</desc><g><g><title>Shape 1</title><path d="M39.77578,39.64486c-0.2306,0.23958 -0.54096,0.35482 -0.84251,0.35482c-0.30144,0 -0.6118,-0.12396 -0.8424,-0.35482l-9.71912,-9.72051c-2.99721,2.60773 -6.908,4.18624 -11.18225,4.18624c-9.39983,0 -17.05273,-7.65412 -17.05273,-17.05544c0,-9.40132 7.64408,-17.05544 17.05273,-17.05544c9.39983,0 17.05273,7.6454 17.05273,17.05544c0,4.27495 -1.57848,8.18635 -4.18556,11.18416l9.71912,9.72051c0.46108,0.46135 0.46108,1.22407 0,1.68504zM17.18068,31.72501c8.08743,0 14.65839,-6.59002 14.65839,-14.66985c0,-8.07983 -6.57097,-14.66075 -14.65839,-14.66075c-8.07861,0 -14.65839,6.57221 -14.65839,14.66075c0,8.08893 6.57978,14.66985 14.65839,14.66985z" fill="#ffffff" fill-opacity="1"></path></g></g></svg>