<?xml version="1.0" encoding="UTF-8"?>
<svg id="SVGDoc" width="75" height="75" xmlns="http://www.w3.org/2000/svg" version="1.1" xmlns:xlink="http://www.w3.org/1999/xlink" xmlns:avocode="https://avocode.com/" viewBox="0 0 75 75"><defs></defs><desc>Generated with Avocode.</desc><g><g><title>Shape 1</title><path d="M74.59102,31.14778c0,1.21838 -0.47493,2.36132 -1.33896,3.22033l-12.98344,12.94084v23.29784c0,1.96745 -1.60664,3.56871 -3.58074,3.56871h-52.51648c-1.97411,0 -3.58074,-1.60126 -3.58074,-3.56871v-66.61329c0,-1.96707 1.60641,-3.56833 3.58074,-3.56833h52.51648c1.97411,0 3.58051,1.60126 3.58051,3.56871v2.2874c0.76012,-1.37153 1.1935,-2.95838 1.1935,-4.66654h2.38724c0,5.77992 3.7476,9.51618 9.54838,9.51618v2.37914c-5.27069,0 -9.54838,6.47819 -9.54838,10.70538h-2.38724c0,-1.63348 -0.43213,-3.32572 -1.1935,-4.87314v15.08647l6.52153,-6.50094c0.86403,-0.86015 2.01096,-1.33324 3.23078,-1.33324c2.52102,0 4.57031,2.04327 4.57031,4.5532zM56.94274,12.4418c2.53979,1.37267 4.63703,3.71959 5.83054,6.53506c1.18984,-2.51827 3.1319,-4.92318 5.57865,-6.39138c-2.62573,-1.05727 -4.63097,-2.97468 -5.78384,-5.52403c-1.20289,2.37914 -3.18077,4.27533 -5.62534,5.38036zM57.88139,70.60679v-20.91908l-12.44751,12.40709l-11.30894,4.83031l4.84692,-11.27173l0.16251,-0.16187l0.34962,-0.34876h-6.66721v-8.32623h8.35487v6.64461l16.70975,-16.65323v-20.74546c-1.61007,-1.54022 -3.6644,-2.55276 -5.96786,-2.55276v-2.37914c2.27863,0 4.34349,-0.76234 5.96786,-2.04365v-5.09339c0,-0.65658 -0.53581,-1.18957 -1.1935,-1.18957h-52.51648c-0.65769,0 -1.19362,0.53299 -1.19362,1.18957v66.61329c0,0.65658 0.53593,1.18919 1.19362,1.18919h52.51625c0.65769,0 1.1935,-0.53262 1.1935,-1.18919zM40.38028,58.4154l-1.71043,3.97774l3.99136,-1.70437zM35.20343,49.19528v3.56871h3.58074v-3.56871zM65.74199,38.48991l-3.08647,-3.07628l-20.98995,20.9187l3.08647,3.07628zM72.2039,31.14816c0,-1.19905 -0.97881,-2.17406 -2.18319,-2.17406c-0.5825,0 -1.1301,0.22556 -1.54324,0.63724l-4.13441,4.12028l3.08647,3.07628l4.13441,-4.1218c0.40707,-0.40562 0.63972,-0.96477 0.63995,-1.53795zM8.94542,15.88883c0,-3.93605 3.21201,-7.13704 7.16148,-7.13704c3.94947,0 7.16125,3.201 7.16125,7.13704c0,3.93642 -3.21178,7.13704 -7.16125,7.13704c-3.94947,0 -7.16148,-3.20062 -7.16148,-7.13704zM11.33231,15.88883c0,2.62441 2.14153,4.7579 4.77459,4.7579c2.63306,0 4.77436,-2.13349 4.77436,-4.7579c0,-2.62441 -2.1413,-4.75828 -4.77436,-4.75828c-2.63306,0 -4.77459,2.13387 -4.77459,4.75828zM10.13904,25.40463h9.54838v2.37952h-9.54838zM19.68719,34.92082v8.32661h-8.35487v-8.32661zM17.30029,37.30034h-3.58074v3.56833h3.58074zM11.33231,46.81652h8.35487v8.32623h-8.35487zM13.71955,52.76399h3.58074v-3.56871h-3.58074zM41.17107,34.92119v8.32661h-8.35476v-8.32661zM38.78417,37.30034h-3.58074v3.56833h3.58074zM31.62315,12.32011h16.70986v2.37914h-16.70986zM31.62315,19.45716h21.48399v2.37914h-21.48399zM31.62315,26.59458h21.48399v2.37914h-21.48399zM22.07431,36.11039h5.96786v2.37952h-5.96786zM22.07431,40.86867h5.96786v2.37914h-5.96786zM43.55876,36.11039h5.96786v2.37952h-5.96786zM43.55876,40.86867h5.96786v2.37914h-5.96786zM22.07431,50.38485h5.96786v2.37914h-5.96786zM11.33231,59.90104h21.48399v2.37914h-21.48399zM11.33231,64.65894h21.48399v2.37914h-21.48399zM22.07431,25.40463h2.38712v2.37952h-2.38712zM53.10691,67.03808h2.38712v2.37952h-2.38712zM48.33278,67.03808h2.38724v2.37952h-2.38724zM5.36468,67.03808h2.38724v2.37952h-2.38724z" fill="#00acff" fill-opacity="1"></path></g></g></svg>