<?xml version="1.0" encoding="UTF-8"?>
<svg id="SVGDoc" width="75" height="76" xmlns="http://www.w3.org/2000/svg" version="1.1" xmlns:xlink="http://www.w3.org/1999/xlink" xmlns:avocode="https://avocode.com/" viewBox="0 0 75 76"><defs></defs><desc>Generated with Avocode.</desc><g><g><title>Shape 1</title><path d="M58.1096,31.99966c0,14.55726 -11.78307,26.3999 -26.26694,26.3999c-14.48376,0 -26.26682,-11.84263 -26.26682,-26.3999c0,-14.55726 11.78307,-26.3999 26.26682,-26.3999c14.48387,0 26.26694,11.84263 26.26694,26.3999zM31.84266,55.99995c13.16689,0 23.87901,-10.76679 23.87901,-24.00028c0,-13.2335 -10.71213,-24.00028 -23.87901,-24.00028c-13.16689,0 -23.87901,10.76679 -23.87901,24.00028c0,12.55304 9.64245,22.8672 21.8708,23.89793c-1.58192,-0.37302 1.73962,0.10235 2.00821,0.10235zM74.82484,68.90895c0,3.46825 -2.80815,6.29055 -6.25866,6.29055c-1.67152,0 -3.24394,-0.65354 -4.426,-1.84198l-11.40335,-11.46127l-2.14073,2.15169l-1.68823,-1.69679l2.14073,-2.15169l-2.14314,-2.15396c-4.90002,3.25331 -10.76351,5.15443 -17.0628,5.15443c-17.11761,0 -31.04267,-13.99584 -31.04267,-31.20026c0,-17.20442 13.92506,-31.20026 31.04267,-31.20026c17.11773,0 31.04267,13.99584 31.04267,31.20026c0,6.33111 -1.89114,12.22437 -5.12798,17.14945l2.14314,2.15396l2.14073,-2.15169l1.68823,1.69679l-2.14073,2.15131l11.40347,11.46127c1.18195,1.18805 1.83266,2.76695 1.83266,4.44819zM60.49752,31.99966c0,-15.87989 -12.85526,-28.79989 -28.65486,-28.79989c-15.79948,0 -28.65475,12.91999 -28.65475,28.79989c0,15.87989 12.85526,28.79989 28.65475,28.79989c15.7996,0 28.65486,-12.91999 28.65486,-28.79989zM52.73682,58.50305l5.47543,-5.50356l-1.86733,-1.87685c-1.59153,2.05426 -3.4314,3.90382 -5.47543,5.50356zM72.43703,68.90895c0,-1.03907 -0.40237,-2.01674 -1.13308,-2.7514l-11.40347,-11.46127l-5.47543,5.50318l11.40347,11.46127c0.73059,0.73467 1.70368,1.13877 2.73766,1.13877c2.13478,0 3.87085,-1.74493 3.87085,-3.89055z" fill="#00acff" fill-opacity="1"></path></g></g></svg>