<?xml version="1.0" encoding="UTF-8"?>
<svg id="SVGDoc" width="75" height="75" xmlns="http://www.w3.org/2000/svg" version="1.1" xmlns:xlink="http://www.w3.org/1999/xlink" xmlns:avocode="https://avocode.com/" viewBox="0 0 75 75"><defs></defs><desc>Generated with Avocode.</desc><g><g><title>Shape 1</title><path d="M74.57679,20.41171v53.98823h-54.92168v-9.59807h-13.13347c-3.29178,0 -5.9697,-3.22829 -5.9697,-7.19808v-39.59169c0,-0.1558 0.01064,-16.42161 0.03101,-18.01225l1.19396,0.0163h53.69659v9.59807h8.35773c5.92552,0 10.74554,4.84433 10.74554,10.79749zM10.10352,15.61286c0,-3.30752 2.67803,-5.99865 5.9697,-5.99865h37.01248v-7.19846h-50.12558c-0.01316,4.93835 -0.02037,15.47048 -0.02037,15.59634v39.59169c0,2.6464 1.60709,4.79846 3.58189,4.79846c1.97479,0 3.58189,-2.15207 3.58189,-4.79846zM19.65511,15.61286c0,-1.98451 -1.60709,-3.59904 -3.58189,-3.59904c-1.97479,0 -3.58189,1.61453 -3.58189,3.59904v41.99093c0,1.84463 -0.58376,3.52322 -1.53294,4.79846h8.69671zM72.18887,20.41171c0,-4.63091 -3.75023,-8.39788 -8.35762,-8.39788h-43.01331c0.75817,1.00533 1.22509,2.24343 1.22509,3.59904v56.38746h50.14584zM48.30985,28.80997h19.10316v19.19575h-19.10316zM50.69778,45.60611h14.32743v-14.39653h-14.32743zM26.81876,28.80997h19.10316v19.19575h-19.10316zM29.20669,45.60611h14.32743v-14.39653h-14.32743zM48.30985,50.40496h19.10316v19.19575h-19.10316zM50.69778,67.2011h14.32743v-14.39653h-14.32743zM53.0857,37.20823h9.55158v2.39923h-9.55158zM53.0857,58.80284h9.55158v2.39961h-9.55158zM69.80094,20.41171c0,3.3079 -2.67803,5.99865 -5.9697,5.99865h-27.81784l-11.84875,-5.99865l11.84875,-5.99827h27.81784c3.29166,0 5.9697,2.69075 5.9697,5.99827zM35.17638,17.52383l-5.70351,2.88787l5.70351,2.88901zM56.66747,21.61151h-19.10316v2.39923h19.10316zM56.66747,16.81267h-19.10316v2.39923h19.10316zM61.44332,16.81267h-2.38792v7.19808h2.38792zM67.41302,20.41171c0,-1.98413 -1.60698,-3.59904 -3.58177,-3.59904v7.19808c1.97479,0 3.58177,-1.61453 3.58177,-3.59904zM37.56431,37.20823h3.58189v2.39923h-3.58189v3.59904h-2.38792v-3.59904h-3.58177v-2.39923h3.58177v-3.59942h2.38792zM26.81876,50.40496h19.10316v19.19575h-19.10316zM29.20669,67.2011h14.32743v-14.39653h-14.32743zM40.59093,57.45822l-2.53235,2.54442l2.53235,2.5448l-1.68823,1.69679l-2.53235,-2.5448l-2.53235,2.5448l-1.68823,-1.69679l2.53235,-2.5448l-2.53235,-2.54442l1.68823,-1.69641l2.53235,2.5448l2.53235,-2.5448zM56.66747,62.40225h2.38792v2.39961h-2.38792zM56.66747,55.20418h2.38792v2.39961h-2.38792z" fill="#00acff" fill-opacity="1"></path></g></g></svg>