<?xml version="1.0" encoding="UTF-8"?>
<svg id="SVGDoc" width="75" height="76" xmlns="http://www.w3.org/2000/svg" version="1.1" xmlns:xlink="http://www.w3.org/1999/xlink" xmlns:avocode="https://avocode.com/" viewBox="0 0 75 76"><defs></defs><desc>Generated with Avocode.</desc><g><g><title>Shape 1</title><path d="M70.04906,29.59952c0,3.97092 -3.21293,7.19997 -7.16366,7.19997c-1.03157,0 -2.03213,-0.22783 -2.98485,-0.67818c-0.95284,0.45035 -1.95339,0.67818 -2.98496,0.67818c-3.95073,0 -7.16366,-3.22905 -7.16366,-7.19997c0,-3.97054 3.21293,-7.19997 7.16366,-7.19997c1.03157,0 2.03213,0.22783 2.98496,0.67818c0.95272,-0.45035 1.95328,-0.67818 2.98485,-0.67818c3.95073,0 7.16366,3.22943 7.16366,7.19997zM67.66114,29.59952c0,-2.64715 -2.14188,-4.79998 -4.77573,-4.79998c-0.82386,0 -1.62495,0.22556 -2.38438,0.66984l-0.60047,0.35141l-0.60059,-0.35141c-0.75932,-0.44429 -1.56166,-0.66984 -2.38438,-0.66984c-2.63386,0 -4.77573,2.15283 -4.77573,4.79998c0,2.64753 2.14188,4.80036 4.77573,4.80036c0.82272,0 1.62506,-0.2248 2.38438,-0.66984l0.60059,-0.35179l0.60047,0.35179c0.75943,0.44391 1.56052,0.66984 2.38438,0.66984c2.63386,0 4.77573,-2.15283 4.77573,-4.80036zM41.39432,41.59986v9.59996h2.38792v-7.19997h31.04267v9.59958h-4.77585v7.19997h-2.38792v4.80036h7.16377v9.59996h-31.04267v-7.19997h-2.38792v7.19997h-40.59437v-69.60011h14.44805c0.55515,-2.73472 2.967,-4.79998 5.84919,-4.79998h47.75791c3.29178,0 5.96981,2.69151 5.96981,5.99979v28.80027c0,3.30828 -2.67803,6.00017 -5.96981,6.00017zM17.5153,7.99961h54.92168v-1.20018c0,-1.98451 -1.60709,-3.5998 -3.58189,-3.5998h-47.75791c-1.97479,0 -3.58189,1.61528 -3.58189,3.5998zM17.5153,16.39977h54.92168v-6.00017h-54.92168zM15.12738,35.59969v-6.93613c-4.61105,2.34957 -7.43237,7.16168 -7.1434,12.4776c0.36415,6.71171 5.88615,12.17888 12.57236,12.44917c3.58898,0.14026 7.03709,-1.15811 9.63867,-3.66993c2.31274,-2.23319 3.6953,-5.15405 3.97591,-8.32055h-13.07373c-3.29178,0 -5.96981,-2.69189 -5.96981,-6.00017zM39.00639,67.99975h-2.38792v-9.59996h2.38792v-16.79993h-2.44755c-0.28656,3.82687 -1.92352,7.3607 -4.70901,10.05069c-2.91916,2.81888 -6.71356,4.34887 -10.74554,4.34887c-0.21366,0 -0.42858,-0.00341 -0.64476,-0.01327c-7.90272,-0.31767 -14.42997,-6.78222 -14.85981,-14.71534c-0.36301,-6.68896 3.4409,-12.70429 9.52766,-15.24606v-18.02514h-11.93951v64.80012h35.81852zM65.27333,65.59976v-4.80036h-2.38792v2.39999h-2.38792v-2.39999h-2.38792v2.39999h-2.38792v-2.39999h-2.38781v2.39999h-2.38792v-2.39999h-2.38792v2.39999h-2.38792v-2.39999h-2.38781v2.39999h-2.38792v-2.39999h-2.38792v4.80036zM67.66114,70.39936v-2.39961h-2.38781v2.39961h-2.38792v-2.39961h-2.38792v2.39961h-2.38792v-2.39961h-2.38792v2.39961h-2.38781v-2.39961h-2.38792v2.39961h-2.38792v-2.39961h-2.38792v4.79998h26.26694v-4.79998h-2.38792v2.39961zM46.17005,51.19982h26.26694v-4.80036h-2.38792v2.40037h-2.38792v-2.40037h-2.38781v2.40037h-2.38792v-2.40037h-2.38792v2.40037h-2.38792v-2.40037h-2.38792v2.40037h-2.38781v-2.40037h-2.38792v2.40037h-2.38792v-2.40037h-2.38792zM41.39432,53.59943v4.80036h26.26682v-4.80036h-2.38781v2.39999h-2.38792v-2.39999h-2.38792v2.39999h-2.38792v-2.39999h-2.38792v2.39999h-2.38781v-2.39999h-2.38792v2.39999h-2.38792v-2.39999h-2.38792v2.39999h-2.38781v-2.39999zM68.8551,39.19949c1.97479,0 3.58189,-1.6149 3.58189,-3.5998v-16.79993h-54.92168v16.79993c0,1.98489 1.60709,3.5998 3.58189,3.5998z" fill="#00acff" fill-opacity="1"></path></g></g></svg>