<?xml version="1.0" encoding="UTF-8"?>
<svg id="SVGDoc" width="75" height="74" xmlns="http://www.w3.org/2000/svg" version="1.1" xmlns:xlink="http://www.w3.org/1999/xlink" xmlns:avocode="https://avocode.com/" viewBox="0 0 75 74"><defs></defs><desc>Generated with Avocode.</desc><g><g><title>Shape 1</title><path d="M74.44211,72.68535v1.18957h-2.38724v-1.18957c0,-6.15711 -4.71909,-11.23534 -10.74188,-11.83467v13.02424h-2.38712v-13.0849h-3.58074v13.0849h-2.38712v-13.0849h-2.38724c-0.48695,0 -0.95238,-0.07506 -1.40614,-0.18424c-1.03718,5.51228 -5.89485,9.70042 -11.72287,9.70042c-5.82802,0 -10.68581,-4.18776 -11.72298,-9.70042c-0.45364,0.10918 -0.91908,0.18424 -1.40614,0.18424h-2.38712v13.0849h-2.38712v-13.0849h-3.58051v13.0849h-2.38712v-13.02386c-6.02257,0.5982 -10.742,5.67719 -10.742,11.83429v1.18957h-2.38712v-1.18957c0,-5.74694 3.43266,-10.69893 8.35476,-12.95904v-2.99174c-2.3465,-1.41892 -3.58074,-3.70177 -3.58074,-6.65068c0,-2.89015 1.95854,-6.25908 5.70271,-7.10823l1.45855,-0.3298v6.24847h2.38712v-6.24619l1.45626,0.32753c3.74542,0.84195 5.70522,4.21316 5.70522,7.10823c0,2.94891 -1.23425,5.2329 -3.58074,6.65068v1.67632h5.96786c1.97411,0 3.58074,-1.60126 3.58074,-3.56871v-4.95427c-5.6979,-3.29729 -9.54838,-9.43051 -9.54838,-16.45686v-0.16907c-2.05307,-0.53148 -3.58074,-2.37762 -3.58074,-4.58921c0,-2.13728 0.80807,-3.48759 1.26057,-4.07744c-0.04063,-0.22025 -0.06695,-0.44505 -0.06695,-0.68046v-2.37914c0,-11.80624 9.63787,-21.41113 21.48388,-21.41113c11.84601,0 21.48376,9.60527 21.48376,21.41113v2.37914c0,0.23541 -0.02621,0.46021 -0.06683,0.68046c0.45238,0.58986 1.26045,1.94016 1.26045,4.07744c0,2.21159 -1.5279,4.05735 -3.58074,4.58921v0.16907c0,7.02635 -3.85036,13.15958 -9.54838,16.45686v4.95427c0,1.96745 1.60675,3.56871 3.58074,3.56871h3.58051v-2.37914c0,-0.15315 0.01431,-3.80374 1.2545,-7.51272l3.92681,-9.14051h6.34735l3.89111,9.04763c1.27602,3.80185 1.29032,7.45244 1.29032,7.60597v7.13704h-0.09682c2.2784,2.52888 3.67722,5.85839 3.67756,9.51618zM19.53839,50.08427c0,-1.53113 -0.81539,-3.26089 -2.38724,-4.20747v5.39704h-7.16114v-5.39439c-1.57207,0.94923 -2.38712,2.67634 -2.38712,4.20482c0,2.31356 0.9549,3.90989 2.91824,4.88186l0.66216,0.32829v3.58615c1.14704,-0.29607 2.34306,-0.46969 3.58074,-0.46969h1.19362v-3.11646l0.66238,-0.32829c1.96335,-0.97198 2.91836,-2.5683 2.91836,-4.88186zM56.53863,30.72172c0.71011,-0.4132 1.19339,-1.17213 1.19362,-2.04858c0,-0.71154 -0.12886,-1.27752 -0.28519,-1.7093c-0.271,0.24375 -0.57655,0.47196 -0.90843,0.6888zM18.37716,20.90909c4.24793,-2.25518 13.16357,-2.9417 19.0646,-2.9417c5.90092,0 14.81667,0.68652 19.0646,2.94284c-0.32238,-9.80505 -8.10665,-17.73893 -17.87109,-18.34584v8.26596h-2.38712v-8.26596c-9.76444,0.60502 -17.54871,8.5408 -17.87098,18.34471zM18.345,27.65151c-0.33188,-0.2157 -0.63732,-0.44391 -0.90832,-0.6888c-0.15644,0.43178 -0.28519,0.99813 -0.28519,1.71043c0,0.87645 0.48317,1.63538 1.1935,2.04744zM37.44176,28.67276c11.95347,0 19.09687,-2.41932 19.09664,-4.75752c-0.22556,-1.20777 -7.17075,-3.56871 -19.09664,-3.56871c-11.91902,0 -18.86192,2.35867 -19.09573,3.57212c0.00607,2.33744 7.14821,4.75411 19.09573,4.75411zM37.44176,50.08427c9.21421,0 16.70975,-7.47026 16.70975,-16.65323v-4.59793c-5.26257,1.99854 -13.41774,2.21879 -16.70975,2.21879c-3.29201,0 -11.44753,-0.22025 -16.70986,-2.21879v4.59793c0,9.18297 7.49554,16.65323 16.70986,16.65323zM46.9209,59.51251c-1.40007,-1.08835 -2.318,-2.76695 -2.318,-4.66995v-3.78024c-2.21397,0.89692 -4.62868,1.40148 -7.16114,1.40148c-2.53258,0 -4.94728,-0.50494 -7.16125,-1.40148v3.78024c0,1.90301 -0.91782,3.5816 -2.318,4.66995c0.55023,4.72985 4.58908,8.41456 9.47926,8.41456c4.89006,0 8.92902,-3.68509 9.47914,-8.41456zM58.92587,56.03212c0,-1.54894 1.00124,-2.85755 2.38712,-3.34998v-10.92411h-0.40707l-3.27038,7.60559c-1.08387,3.25445 -1.09692,6.63513 -1.09692,6.66849v2.37876h3.3181c-0.57175,-0.63269 -0.93086,-1.46175 -0.93086,-2.37876zM63.69988,56.03212c0,-0.65658 -0.53593,-1.18957 -1.19362,-1.18957c-0.65769,0 -1.1935,0.53299 -1.1935,1.18957c0,0.65696 0.53581,1.18957 1.1935,1.18957c0.65769,0 1.19362,-0.53262 1.19362,-1.18957zM68.47413,61.11452v-5.08164c0,-0.03412 -0.01774,-3.43186 -1.13262,-6.76213l-3.23456,-7.5131h-0.40707v10.92411c1.38577,0.49281 2.38712,1.80141 2.38712,3.34998c0,1.28017 -0.68504,2.39582 -1.70311,3.0251c1.48361,0.46248 2.8561,1.17062 4.09023,2.05768zM38.63526,44.1368h-2.38712v-11.89533h13.12912v2.37914h-10.742zM21.92551,15.58825h2.38712v2.37914h-2.38712zM26.69976,14.39868h2.38724v2.37914h-2.38724z" fill="#00acff" fill-opacity="1"></path></g></g></svg>